Coordinates
version=1
nRows=18
nColumns=22
inDegrees=yes

Units are S.I. units (second, meters, Newtons, ...)
If the header above contains a line with 'inDegrees', this indicates whether rotational values are in degrees (yes) or radians (no).

endheader
time	pelvis_tilt	pelvis_list	pelvis_rotation	pelvis_tx	pelvis_ty	pelvis_tz	hip_flexion_r	hip_adduction_r	hip_rotation_r	knee_angle_r	ankle_angle_r	subtalar_angle_r	hip_flexion_l	hip_adduction_l	hip_rotation_l	knee_angle_l	ankle_angle_l	subtalar_angle_l	lumbar_extension	lumbar_bending	lumbar_rotation
      5.74000000	     -2.66429701	      0.48346504	   -132.60401531	      0.65065169	      0.94155903	      0.65932429	      3.01380307	     14.75407297	     13.99763222	    -19.40157820	     12.02646488	    -11.99778313	     29.30683860	     -8.23489192	      5.86620917	    -53.91737388	      9.27097807	      6.23282486	     -8.10043126	      1.74255988	      4.10888678
      5.75000000	     -2.62917412	      0.53799852	   -133.52454150	      0.64613843	      0.94122595	      0.66485896	      2.46727058	     14.68290623	     14.85435379	    -19.42828046	     12.37008468	    -11.87346652	     29.59399960	     -8.01340973	      6.60039322	    -51.49233985	      9.46577320	      6.59421226	     -8.05821436	      1.73837424	      4.29406391
      5.76000000	     -2.63814993	      0.57835588	   -134.38322341	      0.64162132	      0.94089711	      0.67045226	      1.88011402	     14.61349182	     15.61642705	    -19.43829877	     12.65212025	    -11.62633105	     29.75868519	     -7.81628940	      7.39161200	    -48.94122455	      9.70707332	      7.15208305	     -8.05650879	      1.76199350	      4.41135798
      5.77000000	     -2.61799615	      0.65680901	   -135.24389686	      0.63706322	      0.94038154	      0.67596994	      1.38490506	     14.54935367	     16.36383568	    -19.51738813	     12.99674130	    -11.40163902	     29.90198876	     -7.67451645	      8.14349003	    -46.28875083	      9.91096158	      7.59287945	     -8.00230225	      1.78338042	      4.55936517
      5.78000000	     -2.59949747	      0.75716775	   -136.08282549	      0.63248063	      0.93974472	      0.68145826	      0.93233037	     14.49686602	     17.06081565	    -19.63339409	     13.36131849	    -11.14191984	     29.99132829	     -7.58741689	      8.88428972	    -43.54264891	     10.13064105	      8.00068826	     -7.93343997	      1.82118113	      4.70232474
      5.79000000	     -2.57793285	      0.87917000	   -136.90698883	      0.62785330	      0.93897747	      0.68689096	      0.52925990	     14.45910734	     17.72031366	    -19.79822538	     13.74411242	    -10.84950998	     30.03224714	     -7.56041881	      9.59722548	    -40.71218053	     10.38252871	      8.35375797	     -7.84958829	      1.87015383	      4.83980646
      5.80000000	     -2.54396332	      1.02148121	   -137.71986497	      0.62318426	      0.93808032	      0.69226422	      0.18392426	     14.43297418	     18.34987640	    -20.01653110	     14.12418499	    -10.57251676	     30.03164583	     -7.58984857	     10.26601937	    -37.80606979	     10.67139614	      8.62493297	     -7.74598774	      1.92586458	      4.96654377
      5.81000000	     -2.50613045	      1.17802033	   -138.51765339	      0.61848641	      0.93706767	      0.69759267	     -0.11447141	     14.42167306	     18.93965621	    -20.29010980	     14.52391221	    -10.28084758	     29.98808804	     -7.67402139	     10.89245669	    -34.84657711	     11.01504694	      8.85784105	     -7.63685396	      1.99421892	      5.07652049
      5.82000000	     -2.43966432	      1.34912840	   -139.31569116	      0.61376258	      0.93590390	      0.70284274	     -0.33042137	     14.41860707	     19.50862573	    -20.65373419	     14.96240031	    -10.08962899	     29.92897801	     -7.80380691	     11.44588457	    -31.85949082	     11.40020724	      9.01599577	     -7.50464672	      2.05567150	      5.16758200
      5.83000000	     -2.39555530	      1.51133042	   -140.08765876	      0.60899730	      0.93475083	      0.70812626	     -0.58094636	     14.41641421	     20.02013389	    -20.98981034	     15.33733630	     -9.76571728	     29.78570224	     -7.97629081	     11.97239962	    -28.83899723	     11.83282153	      9.26180413	     -7.40090477	      2.13249022	      5.25737736
      5.84000000	     -2.30518280	      1.68906158	   -140.86210320	      0.60423678	      0.93343707	      0.71334709	     -0.73177908	     14.41686115	     20.52096920	    -21.42452596	     15.76079682	     -9.59131174	     29.66514872	     -8.17691125	     12.40965920	    -25.85485024	     12.25874333	      9.46948281	     -7.25832053	      2.19440597	      5.31207476
      5.85000000	     -2.24081446	      1.85753455	   -141.62358325	      0.59943242	      0.93215525	      0.71861631	     -0.92845236	     14.41433028	     20.95611706	    -21.82133079	     16.12826335	     -9.35325790	     29.47958227	     -8.42182690	     12.78958457	    -22.91273366	     12.69695877	      9.82901180	     -7.14532026	      2.27188146	      5.40511933
      5.86000000	     -2.15720238	      2.03362014	   -142.37871424	      0.59460683	      0.93080714	      0.72389484	     -1.09788088	     14.41010795	     21.37738605	    -22.23654299	     16.49830915	     -9.17035739	     29.30576162	     -8.69017454	     13.08245170	    -20.07956794	     13.09774845	     10.27331404	     -7.01335511	      2.34828342	      5.47813536
      5.87000000	     -2.07446358	      2.21333488	   -143.12819159	      0.58974097	      0.92944181	      0.72920912	     -1.27664962	     14.40359549	     21.77565593	    -22.63872317	     16.85151620	     -9.03498912	     29.13998661	     -8.98452469	     13.27204952	    -17.40918269	     13.43614261	     10.80022665	     -6.87928501	      2.43395377	      5.56401389
      5.88000000	     -1.99888038	      2.39899186	   -143.86798407	      0.58482253	      0.92807602	      0.73457785	     -1.47605642	     14.39622743	     22.15351130	    -23.01453991	     17.18516323	     -8.92902985	     28.99976258	     -9.29508289	     13.34783437	    -14.96565279	     13.70589397	     11.38781066	     -6.74204991	      2.53687115	      5.65680544
      5.89000000	     -1.92184630	      2.58156269	   -144.61527088	      0.57983639	      0.92672132	      0.73998527	     -1.68419856	     14.37600309	     22.52991396	    -23.38926131	     17.48029037	     -8.85520692	     28.90454822	     -9.60359738	     13.25974194	    -12.81778229	     13.90778031	     11.92879237	     -6.60227842	      2.63918473	      5.77867828
      5.90000000	     -1.87709355	      2.76972778	   -145.32327933	      0.57480372	      0.92542541	      0.74550618	     -1.95258951	     14.35780270	     22.88416248	    -23.69880419	     17.77389471	     -8.74559661	     28.86471057	     -9.89883899	     13.10647133	    -11.03272963	     14.08621135	     12.63077845	     -6.48189511	      2.77749137	      5.87664593
      5.91000000	     -1.81632173	      2.95227109	   -146.05507713	      0.56967006	      0.92416323	      0.75106311	     -2.21680378	     14.31291394	     23.26152000	    -24.01330652	     18.00940586	     -8.66730183	     28.91432712	    -10.16258253	     12.79200862	     -9.66179163	     14.22070134	     13.10893947	     -6.34320757	      2.90002679	      6.03147295
